# xmcd
#
# Track frame offsets:
#	150
#	14147
#	28514
#	42410
#	56569
#	69064
#	91639
#	105284
#	119513
#	134436
#	147433
#	160614
#	175054
#	185499
#	195170
#	218140
#	232388
#	247129
#	260473
#	275156
#
# Disc length: 3859 seconds
#
# Revision: 0
# Processed by: cddbd v1.5.2PL0 Copyright (c) Steve Scherf et al.
# Submitted via: EasyCDDAExtractor 16.0.8.2
#
DISCID=210f1114
DTITLE=Συλλογικός δίσκος - Όλα τα ρεμπέτικα 29
DYEAR=2008
DGENRE=Ρεμπέτικη
TTITLE0=Μπέλλου Σωτηρία - Ντερμπεντέρισσα [Β. Τσιτσάνης]
TTITLE1=Πάνου Πόλυ - Μιά νύχτα στο Πασαλιμάνι [Β. Τσιτσάνης]
TTITLE2=Γλυκερία - Τα δαχτυλίδια [Γ. Μητσάκης]
TTITLE3=Ιακωβίδης Αγάθωνας - Το καλοκαίρι τώρα [Παν. Τούντας]
TTITLE4=Τσαουσάκης Πρόδρομος - Γιατί μικρούλα μου [Μ. Βαμβακάρης-Σ. Παγιουμτζή
TTITLE4=ς]
TTITLE5=Άνευ ερμηνευτού - Το μυστήριο [οργαν., εκτ. Ρεμπέτικη Κομπ., Τζακ Γρηγ
TTITLE5=ορίου]
TTITLE6=Περπινιάδης Στελλάκης - Η γαρυφαλλιά [Στ. Περπινιάδης]
TTITLE7=Τζώρτζης Γιώργος-Μαριώ - Να τι βγαίνει από 'κεί [Γ. Ροβερτάκης]
TTITLE8=Αλεξανδρής Γιάννης - Μέσ' στην πολλή σκοτούρα μου [Β.Τσιτσάνης-Σ.Παγιο
TTITLE8=υμτζής]
TTITLE9=Βεργιώτης Τάκης - Κάηκε ένα σχολείο (Κ. το Γαλαξίδι)[παραδ. δ. Στ. Ζιώ
TTITLE9=γας]
TTITLE10=Γκολές Μπάμπης - Περιστεριώτισσα [Σ. Χρυσίνης-Ανάργ. Αντιβάχης]
TTITLE11=Βουτσελά Βιβή - Σούρουπο με συννεφιά [Γ. Μητσάκης]
TTITLE12=Γιουλάκης Νίκος - Δεν ξανακάνω φυλακή [παραδ. δ. Δημ. Βαρδουλάκης]
TTITLE13=Περγιάλης Νίκος - Ήμουνα μάγκας μιά φορά [Μ. Βαμβακάρης]
TTITLE14=Άνευ ερμηνευτού - Ταταυλιανός [οργαν., παραδοσιακό]
TTITLE15=Μαριώ - Κάποια Θεσσαλονικιά [Μπ. Μπακάλης-Στ. Παπαδάκος]
TTITLE16=Ευσταθίου Δημήτρης - Ο Διογένης ο σοφός [Δ. Ευσταθίου]
TTITLE17=Μουφλουζέλης Γιώργος - Έγινα ο ίσκιος σου [Γ. Μουφλουζέλης]
TTITLE18=Περπινιάδης Στελλάκης - Ο ρεμπέτης [1934, Ρουμελιώτης]
TTITLE19=Παγιουμτζής Στράτος - Το μινόρε της ταβέρνας [Παν. Τούντας]
EXTD=
EXTT0=
EXTT1=
EXTT2=
EXTT3=
EXTT4=
EXTT5=
EXTT6=
EXTT7=
EXTT8=
EXTT9=
EXTT10=
EXTT11=
EXTT12=
EXTT13=
EXTT14=
EXTT15=
EXTT16=
EXTT17=
EXTT18=
EXTT19=
PLAYORDER=
